<?xml version="1.0" standalone="no"?>
<!DOCTYPE svg PUBLIC "-//W3C//DTD SVG 20010904//EN"
 "http://www.w3.org/TR/2001/REC-SVG-20010904/DTD/svg10.dtd">
<svg version="1.0" xmlns="http://www.w3.org/2000/svg"
 width="1022.000000pt" height="521.000000pt" viewBox="0 0 1022.000000 521.000000"
 preserveAspectRatio="xMidYMid meet" class="">
<metadata>
Created by potrace 1.15, written by Peter Selinger 2001-2017
</metadata>
<g transform="translate(0.000000,521.000000) scale(0.100000,-0.100000)"
fill="#AF9A59" stroke="none">
<path d="M3101 4105 c-18 -8 -42 -15 -52 -15 -10 0 -33 -9 -51 -20 -18 -11
-38 -20 -45 -20 -26 0 -83 -69 -119 -145 -20 -44 -52 -100 -71 -124 -22 -30
-33 -55 -33 -78 0 -20 -6 -36 -14 -39 -22 -8 -64 -77 -71 -118 -4 -20 -22 -55
-41 -78 -19 -24 -34 -47 -34 -53 0 -5 -9 -21 -20 -35 -22 -28 -80 -144 -80
-161 0 -11 -34 -64 -56 -86 -7 -7 -37 -63 -69 -125 -64 -127 -76 -148 -91
-163 -19 -18 -64 -94 -64 -108 0 -8 -18 -33 -40 -56 -23 -24 -51 -59 -64 -80
-13 -20 -31 -43 -40 -50 -10 -8 -23 -29 -31 -47 -7 -18 -23 -35 -34 -39 -12
-3 -28 -21 -37 -38 -9 -18 -41 -56 -71 -86 -30 -30 -59 -66 -64 -80 -5 -14
-22 -32 -38 -39 -16 -7 -81 -63 -144 -125 -122 -119 -310 -287 -322 -287 -4 0
-21 -15 -39 -33 -17 -18 -48 -42 -69 -52 -22 -11 -45 -33 -53 -48 -8 -15 -19
-25 -25 -21 -12 7 -71 -20 -88 -40 -22 -27 -195 -109 -271 -128 -135 -36 -148
-37 -198 -18 -128 47 -152 72 -192 194 -15 48 -6 246 14 291 8 17 19 46 26 65
11 33 25 68 67 170 10 25 39 77 64 115 26 39 58 93 72 122 34 66 63 107 115
163 23 25 45 54 48 64 7 21 19 38 47 64 10 9 28 27 40 39 13 12 35 25 49 28
21 5 30 1 49 -26 l23 -32 18 54 c9 30 18 71 18 91 0 34 -4 40 -40 58 -48 25
-80 26 -87 3 -5 -19 -66 -63 -86 -63 -7 0 -30 -26 -52 -56 -22 -31 -66 -86
-97 -123 -32 -36 -58 -70 -58 -74 0 -5 -8 -21 -18 -35 -10 -15 -25 -43 -32
-62 -7 -19 -31 -54 -52 -77 -32 -35 -37 -47 -32 -73 5 -23 3 -30 -9 -30 -16 0
-107 -174 -107 -205 0 -9 -8 -29 -18 -43 -27 -40 -40 -73 -46 -112 -6 -48 -22
-107 -40 -156 -11 -30 -14 -66 -11 -123 9 -169 69 -276 194 -347 84 -47 219
-49 371 -5 69 21 240 115 240 134 0 12 8 17 26 17 17 0 28 6 31 19 3 11 17 21
33 25 16 3 39 14 52 26 72 64 92 80 99 80 15 0 103 67 119 90 8 12 22 25 32
29 9 3 60 47 115 98 54 51 124 116 155 145 31 29 57 59 58 66 0 6 6 12 14 12
7 0 34 24 59 53 26 28 62 68 81 87 18 19 42 49 52 65 10 17 35 46 54 66 67 69
97 104 110 129 7 14 28 43 47 66 18 23 33 46 33 53 0 6 4 11 8 11 5 0 23 29
40 63 18 35 48 82 67 105 38 43 65 99 65 131 0 10 9 21 20 24 11 3 23 13 26
24 9 27 65 136 79 153 7 8 15 27 19 42 3 15 12 33 19 40 16 17 47 85 47 102 0
8 13 25 29 39 30 25 71 95 71 122 0 8 9 20 20 27 11 7 20 21 20 30 0 10 5 18
10 18 6 0 10 16 10 35 0 23 6 37 18 44 11 6 33 36 49 68 63 121 94 171 127
207 19 20 38 36 42 36 4 0 16 8 26 17 36 32 237 52 334 33 33 -6 75 -14 94
-17 19 -3 61 -13 92 -24 32 -10 71 -19 87 -19 17 0 53 -9 81 -20 28 -11 67
-20 86 -20 19 0 56 -8 82 -19 59 -23 133 -41 172 -41 16 0 32 -4 35 -10 3 -5
14 -10 23 -10 48 0 233 -110 254 -150 7 -14 17 -28 22 -32 5 -3 12 -34 14 -67
4 -59 3 -62 -32 -101 -20 -22 -36 -46 -36 -53 0 -18 -28 -75 -41 -82 -5 -4 -9
-13 -9 -21 0 -8 -16 -28 -35 -45 -19 -17 -35 -37 -35 -45 0 -7 -16 -28 -35
-46 -20 -17 -50 -57 -67 -87 -17 -30 -39 -62 -47 -71 -39 -41 -58 -68 -64 -91
-4 -14 -19 -30 -38 -38 -30 -13 -128 -107 -129 -123 0 -4 -20 -28 -45 -54 -25
-25 -45 -50 -45 -54 0 -5 -11 -21 -25 -37 -73 -80 -105 -122 -105 -135 0 -7
-18 -32 -40 -53 -22 -21 -40 -48 -40 -60 0 -12 -12 -27 -30 -37 -17 -9 -30
-24 -30 -32 0 -18 -35 -80 -67 -119 -17 -21 -23 -41 -23 -76 0 -51 15 -73 57
-84 29 -7 42 10 49 67 4 25 10 46 14 46 9 0 40 67 40 86 0 17 25 51 97 132 24
26 50 66 59 89 13 33 24 45 50 53 19 7 34 15 34 20 0 5 21 39 46 77 26 37 50
79 54 93 4 17 15 27 35 30 22 4 37 18 60 57 21 36 39 54 60 60 21 6 32 17 39
40 5 18 40 65 77 105 38 40 69 76 69 81 0 8 53 70 83 96 9 8 17 26 17 38 0 15
10 28 29 37 20 11 31 25 35 51 4 20 14 39 22 42 7 3 14 11 14 19 0 8 5 14 11
14 17 0 69 127 84 204 12 64 12 74 -5 111 -9 22 -21 50 -24 62 -4 12 -27 40
-52 61 -45 40 -171 112 -196 112 -7 0 -29 10 -48 23 -19 13 -71 31 -115 41
-114 25 -141 32 -220 54 -38 11 -97 25 -130 30 -83 14 -191 39 -245 55 -25 8
-71 13 -103 12 -31 -2 -59 0 -61 4 -9 14 -181 11 -215 -4z"/>
<path d="M7509 3873 c-41 -30 -86 -53 -106 -53 -10 0 -54 -18 -98 -40 -133
-66 -297 -140 -309 -140 -7 0 -30 -8 -52 -19 -21 -10 -55 -21 -75 -24 -20 -3
-65 -19 -99 -36 -35 -17 -65 -30 -67 -27 -2 2 -40 -11 -83 -30 -43 -19 -91
-34 -107 -34 -15 0 -40 -6 -55 -14 -14 -8 -44 -17 -66 -21 -22 -3 -48 -13 -59
-20 -10 -8 -25 -15 -34 -15 -9 0 -27 -8 -40 -18 -13 -11 -41 -22 -62 -25 -20
-3 -50 -14 -65 -25 -15 -10 -49 -27 -77 -37 -111 -41 -204 -95 -266 -154 -35
-34 -69 -61 -76 -61 -6 0 -21 -14 -33 -30 -12 -17 -39 -39 -59 -50 -23 -11
-43 -31 -51 -50 -7 -17 -18 -34 -25 -38 -6 -4 -24 -28 -39 -54 -15 -25 -33
-52 -42 -58 -8 -7 -26 -34 -40 -60 -25 -47 -26 -47 -87 -54 -34 -3 -66 -11
-71 -16 -6 -6 -20 -10 -32 -10 -13 0 -26 -4 -29 -10 -3 -5 -29 -10 -56 -10
-36 0 -56 -6 -71 -20 -20 -18 -39 -25 -61 -21 -12 2 -160 -51 -171 -61 -6 -4
-17 -8 -26 -8 -9 0 -38 -11 -66 -24 -27 -14 -69 -30 -94 -36 -25 -7 -54 -17
-65 -23 -43 -23 -182 -17 -191 8 -6 14 71 135 85 135 12 0 45 57 60 102 24 74
-14 115 -81 87 -28 -11 -33 -11 -48 8 -31 39 -93 29 -139 -21 -14 -14 -34 -26
-45 -26 -22 0 -226 -196 -226 -217 0 -7 -13 -22 -29 -34 -16 -12 -31 -33 -34
-48 -3 -14 -24 -46 -45 -71 -67 -75 -66 -181 1 -227 40 -28 58 -28 123 -5 64
22 95 43 151 98 24 24 48 44 53 44 6 0 10 5 10 11 0 16 42 48 63 49 9 0 17 -6
17 -14 0 -23 61 -41 130 -39 65 3 180 31 233 59 16 8 33 14 39 14 5 0 46 16
89 35 44 19 88 35 98 35 10 0 26 9 36 20 10 11 31 20 47 20 16 0 45 7 65 15
19 8 45 15 57 15 11 0 29 7 39 15 11 7 25 11 32 9 7 -3 27 2 44 10 16 9 35 16
41 16 14 0 13 -47 -3 -57 -11 -7 -51 -61 -87 -118 -46 -72 -81 -122 -96 -139
-20 -22 -24 -80 -8 -96 6 -6 24 -12 40 -13 23 -2 30 3 32 19 2 12 14 32 28 45
13 12 24 28 24 35 0 7 8 18 19 23 10 6 22 22 25 36 4 14 13 25 21 25 8 0 32
28 52 61 21 34 55 77 76 97 20 19 37 44 37 55 0 10 9 32 20 47 11 16 30 50 43
77 12 27 35 62 50 78 15 17 27 38 27 48 0 18 36 72 73 109 9 10 17 24 17 31 0
6 22 25 49 41 27 16 69 48 92 71 41 39 112 81 201 120 20 8 40 19 42 24 3 5
32 19 63 31 93 37 126 51 155 66 14 8 33 14 42 14 9 0 27 6 39 14 12 8 53 22
91 30 37 9 80 22 95 30 14 7 58 21 96 31 39 9 74 21 80 26 5 5 18 9 30 9 12 0
26 5 32 11 6 6 64 29 129 51 66 21 123 44 128 49 15 14 36 11 36 -5 0 -7 -22
-38 -50 -67 -27 -30 -50 -59 -50 -65 0 -6 -15 -22 -33 -34 -19 -13 -51 -49
-72 -81 -21 -32 -50 -63 -65 -69 -34 -14 -87 -65 -95 -91 -4 -10 -25 -38 -48
-62 -23 -24 -60 -67 -82 -96 -47 -61 -95 -118 -147 -174 -21 -22 -38 -46 -38
-54 0 -8 -13 -32 -29 -52 -15 -20 -38 -55 -50 -78 -11 -23 -25 -45 -31 -48
-14 -8 -70 -120 -70 -139 0 -7 -6 -16 -14 -19 -8 -3 -24 -35 -34 -71 -36 -119
4 -201 100 -204 40 -2 50 2 92 42 25 25 60 50 76 57 16 8 31 22 34 33 4 15 11
18 37 12 18 -3 38 -15 46 -26 23 -33 99 -27 189 15 41 19 78 35 83 35 7 0 74
29 206 90 22 10 65 28 95 40 30 12 62 28 71 36 8 8 23 14 31 14 9 0 21 7 28
15 7 8 20 15 29 15 9 0 61 16 116 35 55 19 129 40 165 46 35 5 69 14 75 18 5
5 27 11 48 14 35 5 37 4 37 -21 0 -19 -18 -47 -60 -94 -33 -36 -60 -73 -60
-81 0 -21 -38 -82 -75 -122 -51 -55 -73 -91 -81 -129 -5 -31 -2 -41 17 -62 29
-31 35 -30 66 6 13 17 34 30 44 30 11 0 29 8 40 18 10 10 49 34 86 52 37 19
81 47 96 62 16 15 44 32 62 38 18 6 36 17 39 25 3 8 12 15 20 15 8 0 27 6 43
14 139 69 323 99 461 76 69 -12 75 -16 87 -44 17 -41 14 -81 -13 -140 -12 -27
-22 -56 -22 -66 0 -10 -7 -34 -15 -53 -46 -111 -3 -284 91 -367 51 -44 90 -60
168 -67 74 -6 80 -4 179 36 140 57 307 140 337 167 14 13 38 30 54 38 52 27
262 219 272 248 3 10 19 25 35 33 20 11 29 23 29 39 0 14 12 39 27 56 19 24
28 46 31 86 3 35 1 54 -7 54 -6 0 -57 -48 -113 -107 -187 -193 -240 -243 -277
-260 -20 -10 -43 -26 -53 -38 -9 -11 -38 -31 -65 -45 -26 -13 -64 -37 -83 -52
-19 -16 -40 -33 -47 -38 -7 -6 -25 -10 -40 -10 -15 0 -42 -8 -58 -19 -17 -10
-45 -21 -63 -25 -18 -3 -46 -9 -62 -12 -17 -4 -55 -3 -85 1 -100 12 -154 84
-155 207 0 37 5 70 10 73 6 3 10 13 10 21 0 8 9 34 20 56 11 23 20 57 20 77 0
19 5 49 11 66 7 19 9 49 5 76 -6 37 -15 51 -56 84 -63 51 -114 64 -269 68 -48
2 -93 -2 -106 -9 -12 -6 -44 -14 -71 -18 -76 -11 -156 -36 -189 -59 -27 -20
-211 -117 -221 -117 -14 0 1 33 28 61 51 51 148 206 148 237 0 7 -14 27 -31
44 l-30 31 -97 -6 c-97 -7 -147 -16 -212 -41 -19 -8 -55 -20 -80 -27 -25 -7
-58 -21 -73 -32 -18 -12 -36 -17 -52 -13 -16 4 -40 -1 -65 -14 -21 -11 -46
-20 -55 -20 -8 0 -15 -4 -15 -10 0 -5 -7 -10 -16 -10 -20 0 -84 -30 -102 -47
-7 -7 -21 -13 -30 -13 -9 0 -33 -12 -53 -26 -20 -14 -53 -27 -73 -29 -20 -2
-64 -19 -98 -39 -33 -20 -80 -39 -105 -43 -24 -3 -46 -10 -49 -14 -3 -5 -18
-9 -35 -9 -26 0 -29 3 -29 31 0 20 8 38 26 52 59 51 114 110 114 123 0 8 5 14
10 14 6 0 10 8 10 18 0 9 14 25 30 34 17 10 33 25 37 35 4 10 9 20 13 23 15
12 70 126 76 157 5 27 2 39 -17 59 -34 36 -70 32 -113 -16 -20 -22 -36 -44
-36 -48 0 -4 -13 -16 -30 -25 -17 -10 -30 -27 -30 -37 0 -11 -9 -24 -20 -30
-11 -6 -27 -27 -36 -48 -8 -20 -26 -48 -39 -62 -13 -14 -42 -61 -66 -105 -42
-79 -150 -205 -175 -205 -7 0 -17 -6 -21 -14 -9 -14 -45 -36 -61 -36 -6 0 -10
23 -10 52 -1 44 3 55 29 79 16 15 29 36 29 47 0 11 6 22 13 25 7 3 32 42 55
87 23 45 61 103 83 129 23 25 48 60 57 78 8 17 25 37 38 43 12 7 28 26 35 41
6 16 34 53 61 81 27 29 59 66 70 82 26 38 140 151 191 190 20 16 37 34 37 41
0 7 34 43 76 81 42 38 97 91 122 119 77 82 127 128 181 170 29 22 77 59 108
83 30 23 63 42 72 42 9 0 27 12 40 25 21 23 23 30 15 68 -10 48 -29 56 -65 30z
m-3253 -1347 c16 -32 16 -35 -7 -65 -12 -17 -28 -31 -35 -31 -6 0 -14 -6 -17
-14 -3 -8 -31 -31 -62 -51 -31 -21 -63 -48 -72 -61 -11 -18 -25 -24 -49 -24
-43 0 -44 19 -4 62 17 17 30 36 30 43 0 6 16 25 36 41 57 45 74 63 74 77 1 13
57 55 78 56 7 1 20 -14 28 -33z"/>
</g>
</svg>
